<svg fill="none" height="40" viewBox="0 0 40 40" width="40">
    <path  d="M30.0319 9.27758H4.83101C4.72879 9.27758 4.63279 9.28824 4.54568 9.3078C4.22923 9.3798 3.92523 9.55669 3.69856 9.79936C3.5039 10.0082 3.37767 10.2607 3.37767 10.5202C3.37767 10.5896 3.38301 10.6536 3.39634 10.7087L6.35279 23.7425C6.49323 24.3602 6.72256 24.9211 7.04967 25.282C7.24701 25.4998 7.49234 25.6358 7.78745 25.6358H26.4826L30.0319 9.27758ZM4.83101 7.16113H32.655L28.1866 27.7522H7.78745C6.83634 27.7522 6.07634 27.346 5.48701 26.6962C4.89679 26.0438 4.50745 25.146 4.29412 24.2047L1.33767 11.1718C1.28523 10.9425 1.26123 10.7247 1.26123 10.5202C1.26123 9.69091 1.61145 8.94069 2.15279 8.36113C2.66301 7.81447 3.35634 7.41447 4.08256 7.25002C4.33679 7.19224 4.58923 7.16113 4.83101 7.16113Z" fill="#ffffff"></path>
    <path  d="M37.414 0.820192C37.9776 0.671748 38.5554 1.00864 38.7038 1.57308C38.8523 2.13664 38.5154 2.71441 37.9509 2.86286C35.8389 3.42375 34.6896 3.80953 34.0585 4.40419C33.4683 4.95886 33.1963 5.8833 32.8318 7.52597L28.3865 26.8317C28.2567 27.4006 27.6896 27.7562 27.1216 27.6255C26.5527 27.4957 26.1972 26.9286 26.3278 26.3606L30.7732 7.06286C31.2318 5.00241 31.6123 3.80686 32.6114 2.86641C33.5696 1.9633 34.9509 1.47441 37.414 0.820192Z" fill="#ffffff"></path>
    <path d="M9.24976 31.4693H26.024L26.6435 31.4817C26.9733 31.488 27.3084 31.4951 27.6195 31.4826C28.0231 31.464 28.3946 31.2613 28.6684 30.9448C28.9635 30.6044 29.1449 30.1324 29.1449 29.6053C29.1449 29.0657 28.952 28.5822 28.6418 28.2382L28.6444 28.2364C28.3609 27.9235 27.9751 27.7306 27.5538 27.7306V25.6133C28.5946 25.6133 29.5333 26.0764 30.2089 26.8239H30.2124C30.8604 27.5413 31.2613 28.5253 31.2613 29.6053C31.2613 30.6533 30.8809 31.6124 30.264 32.3253C29.6213 33.0675 28.72 33.5448 27.7102 33.5902H27.7066C27.3529 33.6044 26.9742 33.5964 26.6026 33.5893C26.504 33.5875 26.3911 33.5857 26.024 33.5857H9.24976V31.4693Z" fill="#ffffff"></path>
    <path  d="M9.35457 33.5754C8.86302 33.5754 8.41946 33.7728 8.09946 34.0919C7.78213 34.4083 7.58568 34.8483 7.58568 35.3363C7.58568 35.8252 7.78302 36.2661 8.09946 36.5817C8.41946 36.9008 8.86302 37.0981 9.35457 37.0981C9.84702 37.0981 10.2906 36.9008 10.6106 36.5817C10.927 36.2661 11.1243 35.8252 11.1243 35.3363C11.1243 34.8483 10.927 34.4083 10.6106 34.0919C10.2906 33.7728 9.84702 33.5754 9.35457 33.5754ZM6.61146 32.595C7.31546 31.8928 8.28524 31.459 9.35457 31.459C10.4239 31.459 11.3946 31.8937 12.0986 32.595C12.8035 33.299 13.2408 34.2688 13.2408 35.3363C13.2408 36.4048 12.8035 37.3745 12.0986 38.0785C11.3946 38.7799 10.4239 39.2145 9.35457 39.2145C8.28524 39.2145 7.31546 38.7799 6.61146 38.0785C5.90657 37.3745 5.46924 36.4048 5.46924 35.3363C5.46924 34.2688 5.90657 33.299 6.61146 32.595Z" fill="#ffffff"></path><path  d="M22.6373 33.5754C22.1457 33.5754 21.7013 33.7728 21.3822 34.0919C21.0648 34.4074 20.8684 34.8483 20.8684 35.3363C20.8684 35.8252 21.0648 36.2661 21.3822 36.5817C21.7013 36.9008 22.1457 37.0981 22.6373 37.0981C23.1288 37.0981 23.5733 36.9008 23.8924 36.5817C24.2097 36.2661 24.4062 35.8252 24.4062 35.3363C24.4062 34.8483 24.2097 34.4083 23.8924 34.0919C23.5733 33.7728 23.1288 33.5754 22.6373 33.5754ZM19.8942 32.595C20.5973 31.8937 21.568 31.459 22.6373 31.459C23.7066 31.459 24.6773 31.8937 25.3804 32.595C26.0862 33.299 26.5226 34.2688 26.5226 35.3363C26.5226 36.4048 26.0862 37.3745 25.3804 38.0785C24.6773 38.7799 23.7066 39.2145 22.6373 39.2145C21.568 39.2145 20.5973 38.7799 19.8942 38.0785C19.1884 37.3745 18.752 36.4048 18.752 35.3363C18.752 34.2679 19.1884 33.299 19.8942 32.595Z" fill="#ffffff"></path>
    </svg>
